<svg version="1.1" id="Layer_1" xmlns="http://www.w3.org/2000/svg" xmlns:xlink="http://www.w3.org/1999/xlink" x="0px" y="0px"
	 width="100%" viewBox="0 0 360 360" enable-background="new 0 0 360 360" xml:space="preserve">
<path fill="#FEFEFE" opacity="1.000000" stroke="none" 
	d="
M236.000000,361.000000 
	C157.360474,361.000000 79.220947,361.000000 1.081419,361.000000 
	C1.054280,360.860535 1.003355,360.721069 1.003351,360.581604 
	C0.999972,240.789871 1.000000,120.998138 1.000000,1.103204 
	C120.889458,1.103204 240.779037,1.103204 360.834290,1.103204 
	C360.834290,120.999809 360.834290,240.999893 360.834290,361.000000 
	C319.471039,361.000000 277.985535,361.000000 236.000000,361.000000 
M88.499985,314.098328 
	C104.662163,314.100311 120.824333,314.108093 136.986511,314.101532 
	C144.159775,314.098633 145.827423,312.462982 145.830994,305.346436 
	C145.844131,279.186584 145.828705,253.026749 145.843323,226.866913 
	C145.846756,220.725052 147.365585,219.182159 153.441940,219.174286 
	C171.437210,219.151001 189.432541,219.162796 207.427841,219.160019 
	C214.407776,219.158951 215.816757,220.563110 215.818542,227.635284 
	C215.825180,253.795105 215.805008,279.954926 215.828903,306.114746 
	C215.834518,312.249023 217.547012,314.084473 223.356354,314.091919 
	C247.183411,314.122498 271.010559,314.119263 294.837616,314.074585 
	C300.106995,314.064697 302.076904,312.119232 302.081848,306.834167 
	C302.118469,267.677826 302.081451,228.521347 302.126526,189.364990 
	C302.132385,184.272598 300.097382,180.414444 296.043243,177.455307 
	C260.415039,151.450226 224.813385,125.408768 189.159500,99.438972 
	C183.529358,95.338036 178.049316,95.313782 172.536392,99.330872 
	C136.752121,125.405731 101.017807,151.549149 65.251732,177.649002 
	C61.481178,180.400528 59.423923,184.067139 59.419178,188.677765 
	C59.378548,228.166306 59.380436,267.654938 59.433018,307.143463 
	C59.439571,312.067169 61.508812,314.015381 66.505730,314.075928 
	C73.502884,314.160706 80.501816,314.097961 88.499985,314.098328 
M73.966934,121.474525 
	C66.147171,127.416725 58.321434,133.351074 50.509239,139.303207 
	C41.638592,146.061798 32.703171,152.738724 23.946203,159.641815 
	C18.990917,163.548035 17.667461,169.548798 20.095499,174.863297 
	C22.526527,180.184326 28.257250,183.439133 34.084793,181.868546 
	C37.308434,180.999725 40.350838,178.898087 43.077225,176.828293 
	C87.222633,143.314148 131.341980,109.765190 175.339218,76.057037 
	C179.545517,72.834412 182.454178,72.899025 186.638901,76.124702 
	C214.719040,97.769440 242.989441,119.167389 271.203247,140.638596 
	C288.022736,153.438522 304.828400,166.256821 321.687866,179.003876 
	C328.178192,183.911087 335.783478,183.134689 340.296661,177.299667 
	C344.809540,171.464996 343.593872,163.886887 337.110107,158.918304 
	C320.329651,146.059189 303.535248,133.216217 286.595734,120.568657 
	C283.845093,118.514961 282.961243,116.413582 283.006378,113.120285 
	C283.207306,98.462395 283.183411,83.801071 283.186951,69.140976 
	C283.188477,62.865303 280.689514,60.243736 274.553284,60.175205 
	C266.724335,60.087765 258.892944,60.089775 251.063950,60.175842 
	C244.961334,60.242928 242.315170,62.924397 242.210770,69.094307 
	C242.116653,74.656441 242.190918,80.221420 242.190918,86.621826 
	C227.659164,75.574165 213.937393,65.114075 200.184464,54.695107 
	C187.822647,45.329994 173.867645,45.393368 161.539444,54.783718 
	C132.540009,76.872498 103.533409,98.951904 73.966934,121.474525 
z"/>
<path fill="#010101" opacity="1.000000" stroke="none" 
	d="
M87.999985,314.098328 
	C80.501816,314.097961 73.502884,314.160706 66.505730,314.075928 
	C61.508812,314.015381 59.439571,312.067169 59.433018,307.143463 
	C59.380436,267.654938 59.378548,228.166306 59.419178,188.677765 
	C59.423923,184.067139 61.481178,180.400528 65.251732,177.649002 
	C101.017807,151.549149 136.752121,125.405731 172.536392,99.330872 
	C178.049316,95.313782 183.529358,95.338036 189.159500,99.438972 
	C224.813385,125.408768 260.415039,151.450226 296.043243,177.455307 
	C300.097382,180.414444 302.132385,184.272598 302.126526,189.364990 
	C302.081451,228.521347 302.118469,267.677826 302.081848,306.834167 
	C302.076904,312.119232 300.106995,314.064697 294.837616,314.074585 
	C271.010559,314.119263 247.183411,314.122498 223.356354,314.091919 
	C217.547012,314.084473 215.834518,312.249023 215.828903,306.114746 
	C215.805008,279.954926 215.825180,253.795105 215.818542,227.635284 
	C215.816757,220.563110 214.407776,219.158951 207.427841,219.160019 
	C189.432541,219.162796 171.437210,219.151001 153.441940,219.174286 
	C147.365585,219.182159 145.846756,220.725052 145.843323,226.866913 
	C145.828705,253.026749 145.844131,279.186584 145.830994,305.346436 
	C145.827423,312.462982 144.159775,314.098633 136.986511,314.101532 
	C120.824333,314.108093 104.662163,314.100311 87.999985,314.098328 
z"/>
<path fill="#030303" opacity="1.000000" stroke="none" 
	d="
M74.248329,121.254814 
	C103.533409,98.951904 132.540009,76.872498 161.539444,54.783718 
	C173.867645,45.393368 187.822647,45.329994 200.184464,54.695107 
	C213.937393,65.114075 227.659164,75.574165 242.190918,86.621826 
	C242.190918,80.221420 242.116653,74.656441 242.210770,69.094307 
	C242.315170,62.924397 244.961334,60.242928 251.063950,60.175842 
	C258.892944,60.089775 266.724335,60.087765 274.553284,60.175205 
	C280.689514,60.243736 283.188477,62.865303 283.186951,69.140976 
	C283.183411,83.801071 283.207306,98.462395 283.006378,113.120285 
	C282.961243,116.413582 283.845093,118.514961 286.595734,120.568657 
	C303.535248,133.216217 320.329651,146.059189 337.110107,158.918304 
	C343.593872,163.886887 344.809540,171.464996 340.296661,177.299667 
	C335.783478,183.134689 328.178192,183.911087 321.687866,179.003876 
	C304.828400,166.256821 288.022736,153.438522 271.203247,140.638596 
	C242.989441,119.167389 214.719040,97.769440 186.638901,76.124702 
	C182.454178,72.899025 179.545517,72.834412 175.339218,76.057037 
	C131.341980,109.765190 87.222633,143.314148 43.077225,176.828293 
	C40.350838,178.898087 37.308434,180.999725 34.084793,181.868546 
	C28.257250,183.439133 22.526527,180.184326 20.095499,174.863297 
	C17.667461,169.548798 18.990917,163.548035 23.946203,159.641815 
	C32.703171,152.738724 41.638592,146.061798 50.509239,139.303207 
	C58.321434,133.351074 66.147171,127.416725 74.248329,121.254814 
z"/>
</svg>