<svg version="1.1" id="Layer_1" xmlns="http://www.w3.org/2000/svg" xmlns:xlink="http://www.w3.org/1999/xlink" x="0px" y="0px"
	 width="100%" viewBox="0 0 352 352" enable-background="new 0 0 352 352" xml:space="preserve">
<path fill="#000000" opacity="1.000000" stroke="none" 
	d="
M242.392105,278.624908 
	C238.207611,275.284576 234.316833,272.148224 230.384430,269.064972 
	C229.085373,268.046417 227.719849,266.780731 225.893173,267.484924 
	C220.771805,269.459229 215.688095,271.532288 210.604614,273.603424 
	C208.816254,274.332062 208.407150,275.893341 208.230804,277.656281 
	C207.270691,287.254669 206.107300,296.835266 205.308929,306.446503 
	C204.671356,314.121704 202.025421,317.045166 194.488541,317.119354 
	C185.492432,317.207916 176.493515,317.196136 167.497787,317.078491 
	C160.638382,316.988770 158.403183,314.888550 157.595627,307.935577 
	C156.559189,299.012177 155.569336,290.081848 154.710037,281.140045 
	C154.285172,276.718781 152.668320,274.287323 148.222992,271.880707 
	C138.160034,266.432800 130.582718,267.798584 122.925598,275.981079 
	C118.422424,280.793213 112.666992,284.444519 107.415405,288.541840 
	C103.281609,291.767059 100.081543,291.730591 96.326736,288.109161 
	C89.135178,281.173065 82.034615,274.139160 75.025200,267.018951 
	C70.737328,262.663300 70.782356,259.250153 75.089348,253.788528 
	C81.071396,246.202774 87.099297,238.648987 93.295090,231.238312 
	C95.398453,228.722504 96.017075,226.452759 94.236702,223.608994 
	C93.534645,222.487610 92.750038,221.260605 92.563065,219.998718 
	C90.951546,209.122742 83.169067,207.586533 74.149513,207.245331 
	C67.512024,206.994217 60.894165,206.063232 54.284195,205.292496 
	C48.133533,204.575317 45.847759,202.030991 45.789330,195.784256 
	C45.700504,186.288162 45.688545,176.789978 45.781590,167.294022 
	C45.843937,160.930374 47.932926,158.528641 54.255230,157.783020 
	C64.005150,156.633179 73.775345,155.635803 83.552986,154.751114 
	C86.954735,154.443329 89.187820,153.155212 90.075714,149.720917 
	C90.574135,147.793076 90.956314,145.639832 92.090607,144.105377 
	C97.133583,137.283234 94.390503,132.057312 89.442993,126.671196 
	C84.492798,121.282166 80.035881,115.434357 75.451714,109.716316 
	C70.444641,103.470764 70.540413,100.674194 76.052048,95.054855 
	C82.351036,88.632790 88.717636,82.274895 95.150391,75.986847 
	C100.259880,70.992294 103.412628,70.970131 109.036095,75.518982 
	C116.546814,81.594437 124.125778,87.586975 131.566299,93.746956 
	C133.931656,95.705215 136.088943,96.067680 138.842911,94.640503 
	C141.642181,93.189857 144.530563,91.595093 147.565247,90.984497 
	C152.887665,89.913589 154.323929,86.592262 154.726807,81.773880 
	C155.502472,72.496590 156.591675,63.244263 157.634674,53.991035 
	C158.240738,48.614277 160.606583,46.162010 166.015976,46.039108 
	C175.841003,45.815884 185.676880,45.797165 195.502777,45.982586 
	C201.835648,46.102089 204.544403,49.135132 205.199387,55.707771 
	C206.171555,65.463150 207.329071,75.201172 208.190948,84.965714 
	C208.433762,87.716782 209.598160,89.254593 212.086731,90.066887 
	C213.985260,90.686577 216.156555,90.970375 217.698410,92.098213 
	C225.188446,97.577049 230.897217,94.725357 236.814529,89.109512 
	C242.233078,83.967010 248.332413,79.527008 254.250580,74.930412 
	C259.074768,71.183472 262.356110,71.163971 266.662354,75.272232 
	C273.647888,81.936638 280.499939,88.755447 287.135284,95.767456 
	C291.644470,100.532593 291.559021,103.655342 287.376862,108.982407 
	C281.618683,116.316895 275.840668,123.641937 269.843201,130.779526 
	C267.252014,133.863342 266.544586,136.782623 268.591309,140.308563 
	C269.173187,141.310928 269.807159,142.391510 269.981995,143.504578 
	C271.435150,152.755783 277.272949,155.636475 286.022766,155.705658 
	C293.317505,155.763321 300.613831,156.926559 307.888794,157.776749 
	C314.198090,158.514084 316.349091,160.884827 316.363861,167.230484 
	C316.386658,177.045349 317.288849,186.852661 316.415588,196.679474 
	C315.929962,202.144608 313.988922,204.611115 308.628296,205.215714 
	C299.036591,206.297531 289.446289,207.476379 279.822937,208.153976 
	C275.481232,208.459671 273.020721,210.085327 272.047974,214.286972 
	C271.600494,216.219711 271.136017,218.326752 270.029541,219.896942 
	C265.855988,225.819641 267.705566,230.469360 272.120209,235.359497 
	C277.469482,241.284973 282.287140,247.693237 287.282654,253.934372 
	C291.651276,259.392365 291.470276,262.988220 286.578644,267.913239 
	C280.005859,274.530853 273.412659,281.128906 266.768768,287.675018 
	C262.780212,291.604889 259.311279,291.877136 254.792831,288.490997 
	C250.662766,285.395935 246.703903,282.072449 242.392105,278.624908 
M216.383743,209.853012 
	C231.433212,189.617477 229.620239,165.555206 211.758759,148.468826 
	C196.550980,133.921051 171.805725,132.227600 155.163147,144.595703 
	C137.028641,158.072556 130.936096,181.801987 140.404755,201.113647 
	C154.857529,230.590530 194.458084,235.907364 216.383743,209.853012 
z"/>
</svg>